<svg xmlns="http://www.w3.org/2000/svg" viewBox="0 0 100 100" width="500" height="500" class="illustration"><defs><style>.cls-1{fill:#ff9515;}.cls-2{fill:#ffd44d;}.cls-3{fill:#f0457d;}.cls-4{fill:none;stroke:#231f20;stroke-miterlimit:10;stroke-width:1.5px;}</style></defs><g id="Layer_1" data-name="Layer 1"><rect class="cls-1" x="24.34" y="26.91" width="46.18" height="46.18" rx="5.61"></rect><rect class="cls-2" x="29.49" y="26.91" width="46.18" height="46.18" rx="5.61"></rect><path class="cls-3" d="M73.19,38.1V61.91A7.12,7.12,0,0,1,66.07,69H42.26a7.11,7.11,0,0,1-7.12-7.12V38.1A7.13,7.13,0,0,1,42.26,31H66.07a7.13,7.13,0,0,1,7.12,7.14Z"></path><path class="cls-2" d="M73.19,38.1v3.72L51.5,61.47l-12-13.74L43.74,44,52,53.4,72.42,34.87A7.12,7.12,0,0,1,73.19,38.1Z"></path></g><g id="Layer_2" data-name="Layer 2"><path class="cls-4" d="M64.91,73.09h-35a5.61,5.61,0,0,1-5.6-5.61v-35a5.61,5.61,0,0,1,5.6-5.61h35"></path><path class="cls-4" d="M29.49,54.8V32.52a5.61,5.61,0,0,1,5.6-5.61h35a5.61,5.61,0,0,1,5.6,5.61v35a5.61,5.61,0,0,1-5.6,5.61h-35a5.61,5.61,0,0,1-5.6-5.61V60.66"></path><path class="cls-4" d="M73.19,38.1V61.91A7.12,7.12,0,0,1,66.07,69H42.26a7.11,7.11,0,0,1-7.12-7.12V38.1A7.13,7.13,0,0,1,42.26,31H66.07a7.13,7.13,0,0,1,7.12,7.14Z"></path><polyline class="cls-4" points="73.19 41.82 51.5 61.47 39.48 47.73 43.74 44 51.97 53.4 68.58 38.35"></polyline></g></svg>